<svg width="36" height="32" viewBox="0 0 36 32" fill="none" xmlns="http://www.w3.org/2000/svg">
<g id="Menu Nav">
<g id="+opc">
<path d="M2 27.4074C2 25.9756 3.11929 24.8148 4.5 24.8148H31.5C32.8807 24.8148 34 25.9756 34 27.4074C34 28.8393 32.8807 30 31.5 30H4.5C3.11929 30 2 28.8393 2 27.4074Z" fill="#D82585"/>
<path d="M2 16C2 14.5682 3.11929 13.4074 4.5 13.4074H31.5C32.8807 13.4074 34 14.5682 34 16C34 17.4318 32.8807 18.5926 31.5 18.5926H4.5C3.11929 18.5926 2 17.4318 2 16Z" fill="#D82585"/>
<path d="M2 4.59259C2 3.16074 3.11929 2 4.5 2H31.5C32.8807 2 34 3.16074 34 4.59259C34 6.02444 32.8807 7.18518 31.5 7.18518H4.5C3.11929 7.18518 2 6.02444 2 4.59259Z" fill="#D82585"/>
</g>
<g id="+opc_2">
<path d="M2 27.4074C2 25.9756 3.11929 24.8148 4.5 24.8148H31.5C32.8807 24.8148 34 25.9756 34 27.4074C34 28.8393 32.8807 30 31.5 30H4.5C3.11929 30 2 28.8393 2 27.4074Z" fill="black"/>
<path d="M2 16C2 14.5682 3.11929 13.4074 4.5 13.4074H31.5C32.8807 13.4074 34 14.5682 34 16C34 17.4318 32.8807 18.5926 31.5 18.5926H4.5C3.11929 18.5926 2 17.4318 2 16Z" fill="black"/>
<path d="M2 4.59259C2 3.16074 3.11929 2 4.5 2H31.5C32.8807 2 34 3.16074 34 4.59259C34 6.02444 32.8807 7.18518 31.5 7.18518H4.5C3.11929 7.18518 2 6.02444 2 4.59259Z" fill="black"/>
</g>
</g>
</svg>
