<?xml version="1.0" encoding="utf-8"?>
<!-- Generator: Adobe Illustrator 26.0.0, SVG Export Plug-In . SVG Version: 6.00 Build 0)  -->
<svg version="1.1" id="Capa_1" xmlns="http://www.w3.org/2000/svg" xmlns:xlink="http://www.w3.org/1999/xlink" x="0px" y="0px"
	 width="200px" height="80px" viewBox="0 0 200 80" style="enable-background:new 0 0 200 80;" xml:space="preserve">
<path style="fill-rule:evenodd;clip-rule:evenodd;" d="M160.23,10.75H39.77c-16.16,0-29.25,13.1-29.25,29.25s13.1,29.25,29.25,29.25
	h120.46c16.16,0,29.25-13.1,29.25-29.25S176.39,10.75,160.23,10.75z M39.77,5.58C20.76,5.58,5.35,20.99,5.35,40
	s15.41,34.42,34.42,34.42h120.46c19.01,0,34.42-15.41,34.42-34.42S179.24,5.58,160.23,5.58H39.77z"/>
<path style="fill-rule:evenodd;clip-rule:evenodd;" d="M53.21,17.63c0.95,0,1.72,0.77,1.72,1.72c0,0.41,0,0.81,0,1.21h9.49
	c0.95,0,1.72,0.77,1.72,1.72c0,0.95-0.77,1.72-1.72,1.72h-9.49c0,1.98,0.01,3.78,0.03,5.39c2.59,0.15,5.54,0.64,8.06,1.77
	c3.16,1.41,5.92,3.99,5.92,8.26c0,2.47-0.52,4.68-1.65,6.54c-1.14,1.87-2.83,3.27-4.97,4.23c-0.87,0.39-1.89,0-2.27-0.87
	c-0.39-0.87,0-1.89,0.87-2.27c1.6-0.72,2.71-1.69,3.44-2.88c0.73-1.21,1.15-2.76,1.15-4.75c0-1.88-0.87-3.27-2.4-4.31
	c-0.52,2.85-1.83,5.49-3.46,7.57c-2.05,2.62-4.95,4.74-7.84,4.74c-2.57,0-4.74-1.02-6.26-2.44c-1.48-1.39-2.47-3.28-2.47-5.13
	c0-3.18,0.76-5.88,2.58-7.78c1.49-1.56,3.5-2.38,5.86-2.64c-0.02-1.64-0.02-3.44-0.03-5.43H44.8c-0.95,0-1.72-0.77-1.72-1.72
	c0-0.95,0.77-1.72,1.72-1.72h6.69c0-0.38,0-0.76,0-1.15v-0.06C51.49,18.4,52.26,17.63,53.21,17.63z M51.58,32.89
	c-1.6,0.22-2.69,0.79-3.43,1.56c-0.98,1.03-1.62,2.72-1.62,5.4c0,0.68,0.41,1.71,1.38,2.62c0.93,0.87,2.27,1.51,3.9,1.51
	c0.39,0,0.85-0.1,1.34-0.3c-0.03-0.05-0.06-0.11-0.09-0.16c-0.87-1.82-1.22-4.45-1.39-8.15C51.63,34.6,51.6,33.77,51.58,32.89z
	 M56,41.64c0.32-0.32,0.63-0.68,0.94-1.08c1.51-1.93,2.63-4.4,2.9-6.91c-1.54-0.45-3.22-0.71-4.82-0.81
	c0.02,0.85,0.05,1.63,0.08,2.36C55.26,38.53,55.56,40.47,56,41.64z M74.89,32.58c0.69,0,1.31,0.41,1.58,1.05l11.21,26.35
	c0.37,0.87-0.04,1.89-0.91,2.26c-0.87,0.37-1.89-0.04-2.26-0.91l-2.05-4.81H67.31l-2.05,4.81c-0.37,0.87-1.38,1.28-2.26,0.91
	c-0.87-0.37-1.28-1.38-0.91-2.26l11.21-26.35C73.58,32.99,74.2,32.58,74.89,32.58z M68.78,53.07h12.23l-6.12-14.38L68.78,53.07z"/>
<g style="display:none;">
	<path style="display:inline;" d="M123.39,27.15h14.08v4.41h-8.99v5.97h6.99v4.41h-6.99v6.33h8.99v4.6h-14.08V27.15z"/>
	<path style="display:inline;" d="M156.95,32.95l-4.09,1.74c-0.58-2.06-1.65-3.09-3.2-3.09c-0.73,0-1.3,0.23-1.72,0.69
		c-0.42,0.46-0.63,0.99-0.63,1.6c0,0.71,0.25,1.27,0.75,1.69c0.5,0.42,1.55,0.97,3.14,1.65c1.45,0.6,2.59,1.19,3.42,1.77
		c0.83,0.58,1.5,1.38,2.01,2.39c0.51,1.01,0.77,2.17,0.77,3.5c0,2.33-0.72,4.24-2.17,5.73c-1.45,1.49-3.39,2.24-5.82,2.24
		c-4.08,0-6.69-2.29-7.82-6.86l4.32-1.37c0.53,2.51,1.73,3.77,3.61,3.77c0.86,0,1.55-0.25,2.09-0.74c0.53-0.49,0.8-1.14,0.8-1.95
		c0-0.61-0.19-1.15-0.56-1.64c-0.37-0.48-1.23-0.99-2.58-1.53c-1.73-0.68-3.01-1.3-3.86-1.86c-0.85-0.56-1.55-1.35-2.1-2.38
		c-0.55-1.03-0.83-2.2-0.83-3.52c0-2.24,0.65-4.08,1.96-5.51c1.3-1.43,3.03-2.15,5.17-2.15C153.54,27.13,155.98,29.07,156.95,32.95z
		"/>
</g>
<g>
	<path d="M123.02,27.14h14.08v4.41h-8.99v5.97h6.99v4.41h-6.99v6.33h8.99v4.6h-14.08V27.14z"/>
	<path d="M141.44,27.14h5.65l5.96,15.98V27.14h3.94v25.72h-4.55l-7.06-18.62v18.62h-3.94V27.14z"/>
</g>
<g style="display:none;">
	<path style="display:inline;stroke:#000000;stroke-miterlimit:10;" d="M123.06,27.64h13.9l-0.02,24.72h-2.57l0-2.26h-8.71v2.27
		l-2.55-0.01L123.06,27.64z M134.37,30.51h-8.71v6.95h8.71V30.51z M134.37,40.33h-8.71v6.92h8.71V40.33z"/>
	<path style="display:inline;stroke:#000000;stroke-miterlimit:10;" d="M160.62,32.42v2.87h-7.51c1.91,5.23,5.36,8.87,8,10.39
		c-0.69,1.06-1.27,2.15-1.74,2.99c-0.92-0.72-1.93-1.66-2.51-2.35v2.04h-4.29l-0.01,4h-2.6l0.01-4h-4.27v-1.89
		c-0.97,0.98-1.65,1.58-2.34,2.15c-0.41-0.8-1.05-1.95-1.74-2.9c2.94-1.72,6.05-4.85,8.04-10.42h-7.7v-2.87h8v-4.79l2.52,0
		l0.08,4.79H160.62z M149.98,40.75c-0.86,1.66-2.02,3.27-3.3,4.74h3.3V40.75z M156.12,45.49c-1.39-1.69-2.68-3.59-3.54-5.34v5.34
		H156.12z"/>
</g>
</svg>
